<svg fill="#000000" xmlns="http://www.w3.org/2000/svg" viewBox="0 0 24 24" width="144px" height="144px"><path d="M19 17.581c0 .446 3.168.701 2.993-.106C21.74 16.115 19.35 16.222 19 17.581zM18.235 19c-.616.633.107 1.296.71.859C19.105 19.739 18.931 19.151 18.235 19zM5.345 19.716C6.23 20.492 7.57 19.547 8 18.456 7.139 17.317 3.958 18.529 5.345 19.716z"/><path d="M5.345,19.716C6.23,20.492,7.57,19.547,8,18.456C7.139,17.317,3.958,18.529,5.345,19.716z"/><path d="M21.229,10.623l-7.62-7.912c-0.473-0.455-1.098-0.682-1.714-0.682c-0.616,0-1.223,0.227-1.661,0.682L2.88,10.349c-2.787,2.827,1.8,2.59,3.462,3.661c0.767,0.506-2.462,1.158-1.804,1.826c0.642,0.672,3.875,1.287,4.516,1.938c0.642,0.668-1.304,1.378-0.658,2.046c0.625,0.668,2.121,0.037,2.392,1.557C10.865,21.819,11.303,22,11.877,22c0.891,0,2.108-0.437,2.802-1.021c0.712-0.614-1.233-0.614-0.592-1.287c0.575-0.589,1.125-0.851,1.625-1.013c0.896-0.295,1.621-0.27,2-1.249c0.321-0.814-2.429-1.395-1.696-1.918C17.767,14.263,24.196,13.628,21.229,10.623z M10.173,15.367c-0.129-0.059-0.257-0.119-0.381-0.179c-0.026-0.013-0.051-0.025-0.076-0.038c-0.097-0.048-0.191-0.096-0.283-0.144c-0.044-0.023-0.087-0.046-0.129-0.069c-0.068-0.037-0.134-0.074-0.198-0.11c-0.053-0.03-0.106-0.061-0.155-0.09c-0.047-0.028-0.089-0.055-0.132-0.081c-0.055-0.034-0.108-0.068-0.156-0.101c-0.03-0.021-0.057-0.04-0.084-0.06c-0.048-0.034-0.094-0.068-0.132-0.1c-0.02-0.017-0.035-0.031-0.052-0.047c-0.033-0.03-0.065-0.059-0.086-0.085c-0.013-0.016-0.018-0.029-0.026-0.043c-0.013-0.021-0.026-0.042-0.028-0.059c-0.002-0.018,0.01-0.03,0.021-0.043c0.006-0.008,0.006-0.018,0.017-0.024C8.322,14.079,8.37,14.07,8.44,14.07c0.137,0,3.279,0.524,4.412,1.128c0.512,0.274,0.609,0.565-0.174,0.832c-0.024,0.008-0.058,0.008-0.086,0.013c-0.044,0.008-0.086,0.018-0.139,0.019c-0.513,0.006-1.427-0.309-2.273-0.691C10.178,15.37,10.175,15.368,10.173,15.367z M11.895,4.029c0.057,0,0.198,0.011,0.311,0.109l5.044,5.237L16,10l-1-1l-2,1l-2-2l-2,2H6l5.675-5.902C11.715,4.056,11.801,4.029,11.895,4.029z"/></svg>